:SAMPLES-PER-SECOND 30
:FULLY-SPECIFIED
:DEGREES
398
root  -54.3232 35.0077 31.2873 -171.283 41.4052 179.034
RightUpLeg  -7.92456 -11.6427 0.357311
RightLeg  6.73823 -5.01186 -0.265354
RightFoot  1.12236 0.00389666 0.0826089
RightToes  -18.6052 -0.0738207 -0.165514
Spine  -1.26244 -0.000898121 0.661126
Spine1  -2.38259 0.264612 1.88978
HEad  -53.1844 0.936145 0.329298
LeftShoulder1  -1.94126e-019 -3.10601e-018 -2.51263e-017
LeftArm  -4.88798 15.502 -75.9189
LeftForeArm  82.7855 -79.8496 -76.8343
LeftHand  -0.495026 -2.11775 7.85213
RightShoulder  -4.96962e-017 0 -2.36833e-017
RightArm  -18.131 -21.9794 72.375
RightForeArm  53.3205 22.172 2.07737
RightHand  -0.404272 0.642185 -7.8756
LeftUpLeg  -10.9284 -4.50846 2.22972
LeftLeg  6.21612 9.73531 0.427949
LeftFoot  7.83953 -0.0922744 1.50816
LeftToes  -22.8351 1.48321e-006 1.01846e-007
399
root  -54.3325 34.9813 31.2148 -171.406 41.2594 178.891
RightUpLeg  -8.31922 -11.2923 0.145249
RightLeg  7.81764 -5.50373 -0.395295
RightFoot  0.562981 0.00293289 0.128076
RightToes  -18.5683 -0.0736225 -0.165213
Spine  -1.19944 0.0430521 0.840306
Spine1  -2.24913 0.361694 2.2235
HEad  -53.9467 2.38385 0.358558
LeftShoulder1  -1.94126e-019 -3.10601e-018 -2.51263e-017
LeftArm  -4.65297 13.0003 -76.3365
LeftForeArm  56.6322 -76.8005 -46.9258
LeftHand  -0.418631 -1.14669 7.58056
RightShoulder  -4.96962e-017 0 -2.36833e-017
RightArm  -19.2589 -21.4587 72.1733
RightForeArm  54.0303 18.3906 1.33928
RightHand  -0.417114 0.619613 -8.1514
LeftUpLeg  -11.4446 -4.72184 2.05228
LeftLeg  7.42397 9.75864 0.634131
LeftFoot  7.28804 -0.0798439 1.4152
LeftToes  -22.4345 1.48321e-006 1.01846e-007
400
root  -54.3066 34.9461 31.1221 -171.532 41.2464 178.641
RightUpLeg  -8.91682 -10.8903 -0.122413
RightLeg  9.26053 -5.95422 -0.578379
RightFoot  -0.180291 0.000154965 0.200144
RightToes  -18.4951 -0.0728319 -0.16386
Spine  -1.21349 0.0349975 1.0137
Spine1  -2.28235 0.351212 2.53397
HEad  -54.4142 3.94237 0.679005
LeftShoulder1  -1.94126e-019 -3.10601e-018 -2.51263e-017
LeftArm  -4.28749 11.6994 -76.6957
LeftForeArm  42.1099 -69.9822 -27.2879
LeftHand  -0.467092 -2.36298 7.20292
RightShoulder  -4.96962e-017 0 -2.36833e-017
RightArm  -20.2239 -21.4845 71.9274
RightForeArm  54.3644 16.7554 1.07885
RightHand  -0.369873 0.22781 -7.70555
LeftUpLeg  -11.6693 -5.22726 1.82144
LeftLeg  8.08809 10.2179 0.782013
LeftFoot  6.9183 -0.0750129 1.40247
LeftToes  -21.9466 1.48321e-006 1.01846e-007
401
root  -54.2208 34.916 30.9997 -171.717 41.4614 178.359
RightUpLeg  -9.32422 -10.3653 -0.408973
RightLeg  10.5432 -6.29215 -0.753433
RightFoot  -0.868277 -0.00276222 0.274886
RightToes  -18.3018 -0.0717953 -0.162029
Spine  -1.27316 -0.0209663 1.14781
Spine1  -2.42095 0.222473 2.78234
HEad  -54.7438 5.6774 1.39186
LeftShoulder1  -1.94126e-019 -3.10601e-018 -2.51263e-017
LeftArm  -3.72111 11.1379 -77.0807
LeftForeArm  36.8493 -60.8934 -16.9297
LeftHand  -0.466744 -2.64668 6.9633
RightShoulder  -4.96962e-017 0 -2.36833e-017
RightArm  -21.9461 -21.6937 71.7416
RightForeArm  56.4057 15.1532 1.10183
RightHand  -0.380115 0.273962 -7.85738
LeftUpLeg  -11.3016 -5.42433 1.55787
LeftLeg  7.91101 10.6318 0.780542
LeftFoot  6.78383 -0.0745353 1.41907
LeftToes  -21.7084 1.48321e-006 1.01846e-007
402
root  -54.1088 34.889 30.851 -172.109 41.8604 177.965
RightUpLeg  -9.48781 -10.0009 -0.820151
RightLeg  11.6732 -6.28658 -0.878745
RightFoot  -1.60675 -0.00357703 0.353518
RightToes  -17.9331 -0.070594 -0.159999
Spine  -1.32523 -0.147385 1.2084
Spine1  -2.56437 -0.0734425 2.90921
HEad  -54.8425 7.48004 2.55724
LeftShoulder1  -1.94126e-019 -3.10601e-018 -2.51263e-017
LeftArm  -3.68775 11.2869 -77.6602
LeftForeArm  34.4722 -50.2219 -10.8779
LeftHand  -0.454304 -2.74535 6.70815
RightShoulder  -4.96962e-017 0 -2.36833e-017
RightArm  -23.8483 -22.1043 71.6967
RightForeArm  58.1385 14.1156 1.2151
RightHand  -0.388032 0.22743 -8.08203
LeftUpLeg  -10.4613 -5.48005 1.17211
LeftLeg  7.21421 11.0649 0.677767
LeftFoot  6.8324 -0.0781727 1.47103
LeftToes  -21.4576 1.48321e-006 1.01846e-007
403
root  -53.9642 34.8539 30.7114 -172.436 42.2321 177.689
RightUpLeg  -9.56221 -9.57643 -1.09278
RightLeg  12.707 -6.35119 -1.00481
RightFoot  -2.29648 -0.00333978 0.431769
RightToes  -17.6504 -0.0693093 -0.157667
Spine  -1.40184 -0.362147 1.24583
Spine1  -2.76725 -0.55828 3.01002
HEad  -54.19 10.0477 4.40187
LeftShoulder1  -1.94126e-019 -3.10601e-018 -2.51263e-017
LeftArm  -4.75596 12.0753 -78.5028
LeftForeArm  32.8256 -38.6797 -6.94152
LeftHand  -0.438282 -2.62502 6.56833
RightShoulder  -4.96962e-017 0 -2.36833e-017
RightArm  -25.2965 -22.752 71.8054
RightForeArm  58.9589 13.6079 1.28037
RightHand  -0.403173 0.164777 -8.48423
LeftUpLeg  -9.70185 -5.2218 0.922351
LeftLeg  6.74414 11.1445 0.591508
LeftFoot  6.73897 -0.0746972 1.45376
LeftToes  -21.493 1.48321e-006 1.01846e-007
